<?xml version="1.0" encoding="UTF-8"?>
<svg id="Calque_1" data-name="Calque 1" xmlns="http://www.w3.org/2000/svg" viewBox="0 0 257.13 200.43">
  <defs>
    <style>
      .cls-1 {
        fill-rule: evenodd;
      }

      .cls-1, .cls-2 {
        fill: #fff;
      }

      .cls-3 {
        stroke-miterlimit: 10;
      }

      .cls-3, .cls-4 {
        fill: none;
        stroke: #54944f;
        stroke-linecap: round;
        stroke-width: 2px;
      }

      .cls-4 {
        stroke-linejoin: round;
      }
    </style>
  </defs>
  <line class="cls-4" x1="218.44" y1="40.69" x2="227.4" y2="43.76"/>
  <line class="cls-4" x1="206.04" y1="43.12" x2="234.38" y2="52.81"/>
  <line class="cls-4" x1="203.28" y1="49.41" x2="239.28" y2="61.73"/>
  <line class="cls-4" x1="219.11" y1="61.41" x2="245.43" y2="70.41"/>
  <line class="cls-4" x1="220.29" y1="68.51" x2="250.89" y2="78.98"/>
  <line class="cls-4" x1="220.6" y1="77.53" x2="253.19" y2="88.68"/>
  <line class="cls-4" x1="220.69" y1="86.3" x2="253.49" y2="97.52"/>
  <line class="cls-4" x1="219.61" y1="94.47" x2="255.47" y2="106.74"/>
  <line class="cls-4" x1="220.34" y1="102.6" x2="254.06" y2="114.14"/>
  <line class="cls-4" x1="217.81" y1="109.81" x2="248.4" y2="120.28"/>
  <line class="cls-4" x1="213.59" y1="116.07" x2="243.72" y2="126.37"/>
  <line class="cls-4" x1="216.71" y1="124.6" x2="239.88" y2="132.52"/>
  <line class="cls-4" x1="217.59" y1="132.58" x2="235.15" y2="138.59"/>
  <line class="cls-4" x1="209.37" y1="136.67" x2="232.5" y2="144.59"/>
  <line class="cls-4" x1="201.23" y1="140.84" x2="229.57" y2="150.54"/>
  <line class="cls-4" x1="187.1" y1="142.78" x2="227.73" y2="156.68"/>
  <line class="cls-4" x1="182.95" y1="149.45" x2="226.24" y2="164.26"/>
  <line class="cls-4" x1="172.94" y1="152.99" x2="222.84" y2="170.06"/>
  <line class="cls-4" x1="159.06" y1="155.19" x2="217.56" y2="175.2"/>
  <line class="cls-4" x1="150" y1="159.2" x2="206.75" y2="178.62"/>
  <line class="cls-4" x1="143.5" y1="163.09" x2="199.52" y2="182.26"/>
  <line class="cls-4" x1="121.97" y1="161.59" x2="190.73" y2="185.12"/>
  <line class="cls-4" x1="110.08" y1="163.72" x2="182.55" y2="188.52"/>
  <line class="cls-4" x1="94.09" y1="164.29" x2="174.22" y2="191.71"/>
  <line class="cls-4" x1="70.24" y1="161.46" x2="165.06" y2="193.9"/>
  <line class="cls-4" x1="61.73" y1="163.88" x2="152.45" y2="194.92"/>
  <line class="cls-4" x1="46.12" y1="163.58" x2="142.21" y2="196.46"/>
  <line class="cls-4" x1="45.67" y1="168.78" x2="115.34" y2="192.62"/>
  <line class="cls-4" x1="67.66" y1="182.82" x2="104.18" y2="195.31"/>
  <line class="cls-4" x1="71.89" y1="190.45" x2="93.32" y2="197.79"/>
  <path class="cls-3" d="M199.7,92.75c-20.61-4.69-45.01-8.77-72.57-10.59-31.06-2.05-58.65-.73-81.61,1.81"/>
  <path class="cls-3" d="M155.04,49.45c1.67,5.17,1.73,12.07,6.31,20.75,4.72,8.93,11.56,14.67,16.71,18.16-5.51,2.81-11.98,7.36-14.74,14.76-3.27,8.73.69,15.85-3.93,19.65-3.65,3-10.09,1.82-13.76,0-2.96-1.47-5.25-4.09-9.83-9.34-3.99-4.57-5.01-6.52-6.88-6.39-2.61.19-4.7,4.27-5.41,7.37-1.25,5.47,1.89,7.53.49,11.3-1.52,4.12-7.29,7.12-12.78,6.39-4.76-.63-9.32-4.06-10.32-8.35-1.46-6.27,5.58-10.57,3.44-14.74-1.35-2.63-5.71-3.99-8.85-2.95-5.39,1.79-3.82,9.53-9.34,13.27-6.09,4.12-17.99,1.46-21.62-4.91-4.11-7.22,4.02-16.33.49-19.66-4.13-3.89-15.93,8.02-25.06,3.44-5-2.51-7.89-9.31-6.88-14.74,1.35-7.21,9.34-10.76,12.78-12.28,14.18-6.3,26.63-.07,29.48-5.4,1.86-3.48-3.11-6.73-1.47-11.79,2.11-6.5,13.71-11.56,21.62-8.35,9.32,3.77,7.99,16.77,16.71,18.67,4.48.97,9.87-1.35,12.28-4.91,1.87-2.76,1.34-5.35,1.11-7.9-.01-.13-.02-.25-.03-.38M125.57,51.1c-.13-1.66-.08-3.31.9-4.98,1.86-3.19,6.46-5.34,11.46-5.88,1.63-.18,3.3-.18,4.93,0,2.79.32,5.47,1.19,7.65,2.73,1.76,1.24,2.91,2.71,3.72,4.41.11.23.21.46.31.7.18.44.35.9.5,1.37"/>
  <path class="cls-3" d="M141.52,83.34c-.27,2.86-.32,6.4.25,10.38,1.14,7.91,4.21,13.88,6.47,17.48"/>
  <path class="cls-3" d="M152.35,84.52c-3.47-3.92-8.3-10.4-11.39-19.52-1.66-4.91-2.42-9.39-2.75-13.04"/>
  <path class="cls-3" d="M124.01,81.97c-2.22,3.55-4.58,8.01-6.52,13.36-3.64,10.04-4.3,19.04-4.21,25.24"/>
  <path class="cls-3" d="M99.05,81.16c-2.31-2.44-6.29-7.32-8.41-14.64-1.55-5.31-1.54-9.94-1.29-12.94"/>
  <path class="cls-3" d="M89.33,81.21c-2.42,2.61-5.95,7.07-8.4,13.47-3.05,7.96-2.93,14.98-2.59,18.77"/>
  <path class="cls-3" d="M2.13,85.72c1.54-3.27,3.39-2.08,7.36-6.31,2.35-2.5,1.37-2.57,7.01-11.21,2.1-3.21,3.17-4.85,4.38-6.13,1.29-1.37,1.97-1.8,2.63-3.15.86-1.76.49-2.67,1.58-4.73.78-1.48,1.1-1.27,1.58-2.45.72-1.8.03-2.44.52-4.55.3-1.28.54-1,1.75-3.85.83-1.94,1.24-2.93,1.4-4.21.26-2.05-.41-2.18-.17-3.68.31-2.04,1.79-3.4,4.55-5.96,2.02-1.87,2.74-2.04,3.5-3.5.57-1.09.62-1.86,1.4-2.28.57-.31,1.06-.16,3.33.35,3.06.69,3.5.73,4.03.52,1.07-.41.86-1.16,2.1-2.28,1.53-1.36,2.49-.81,5.08-2.1,2.23-1.11,1.74-1.64,3.68-2.45,2.11-.89,2.62-.24,5.08-1.23,1.67-.67,1.73-1.08,3.33-1.58,1.81-.56,2.15-.15,3.68-.53,3.05-.74,2.91-2.63,5.78-3.33,1.94-.47,2.61.25,4.38-.53,1.46-.64,2.24-1.67,2.63-2.1,2.81-3.15,8.58-1.12,19.1-2.45,6.93-.88,9.81-1.58,9.81-1.58,3.03-.73,4.33-1.29,6.48-.88,2.76.53,2.92,1.9,5.78,2.1,1.88.14,3.09-.36,4.73.53.7.38.91.71,1.75,1.05,1.44.59,2.77.41,3.33.35,4.98-.57,6.99,1.01,12.09-.35,2.53-.68,2.15-1.1,5.61-2.1,2.75-.8,4.29-.91,7.01-1.4,5.24-.94,4.71-1.44,9.28-2.28,0,0,7.16-1.32,12.96.53.88.28,1.67.65,2.1,1.4.63,1.1-.05,2.07.35,3.5.07.26.76,1.05,2.1,2.63,1.25,1.47,1.6,1.87,1.93,2.63.37.86.3,1.22.53,2.1,0,0,.59,2.35,2.45,4.21.97.97,1.97,1.4,4.73,2.28,6.19,1.97,6.47,1.52,8.76,2.63,1.43.69,3.86,1.87,5.78,4.38,2.08,2.72,1.33,4.07,3.33,5.61,1.56,1.2,2.36.64,5.78,2.45.8.43,3.37,1.79,3.15,2.63-.1.39-.73.32-1.93,1.05-1.13.69-1.03,1.04-1.75,1.4-1.4.71-2.2-.37-4.03,0-1.62.33-1.43,1.25-3.15,1.75-1.86.54-2.38-.46-4.38,0-.15.03-2.89.7-3.5,2.63-.2.62,0,.78.17,2.45.3,3.01-.25,3.66.35,4.38.78.93,1.87.06,4.38.7,2.47.63,2.44,1.74,4.91,2.28,1.83.4,2.12-.16,3.85.35.92.27,2.87.84,3.5,2.28.77,1.74-1.2,2.97-1.58,5.96-.35,2.77,1.18,2.95,1.93,7.18.7,4.01.08,8.18-.18,9.64-.26,1.45-.59,2.7-.35,4.56.3,2.32,1.1,2.42,1.23,4.03.26,3.32-3.01,4.3-2.98,7.71.02,2.19,1.38,2.11,1.75,4.73.53,3.72-1.74,7.09-2.63,8.41-2.19,3.25-3.85,3.3-4.2,5.61-.28,1.84.51,3.54,1.4,5.43,1.44,3.07,2.46,2.92,2.63,4.73.2,2.15-1.17,3.29-.35,5.26.35.85.81,1.12.7,1.75-.15.89-1.15.95-2.63,2.28-1.42,1.28-1.35,1.99-2.1,2.1-1.38.2-2.32-2.07-3.33-1.75-.61.19-.57,1.12-1.07,2.09-1.07,2.1-3.77,2.74-4.78,2.97-3.61.85-5.14-1.13-8.92-.27-.84.19-1.77.41-2.88.99-1.25.66-1.41,1.1-2.43,1.44-1.57.53-2.11-.2-2.97.27-1.58.86-.18,3.52-1.89,5.41-1.28,1.42-2.48.38-5.23,2.34-.76.54-1.28,1.06-2.16,1.08-1.12.03-1.55-.78-2.52-.72-1.07.07-1.27,1.1-2.34,1.89-2.51,1.85-7.05.39-8.66-.13-1.92-.62-2.62-1.22-3.41-.78-1.09.6-.52,2.17-1.98,3.97-.97,1.2-2.19,1.69-2.7,1.89-.82.32-2.14.83-3.24.27-.62-.32-.67-.72-1.08-.72-.77,0-.95,1.39-2.16,2.43-.74.64-.97.37-2.52,1.08-2.79,1.27-3.03,2.57-4.6,2.52-1.02-.03-1.27-.59-2.43-.45-1.26.15-1.46.85-2.07.72-1.51-.32-1.09-4.7-2.97-5.32-.82-.27-1.42.4-2.34-.09-.84-.44-.68-1.16-1.26-1.53-1.46-.93-5.17,1.87-7.93,3.97-1.98,1.5-2.65,2.21-3.88,2.16-1.23-.05-2.02-.84-3.42-.45-.72.2-.78.48-1.62.72-1.13.32-1.92.07-2.7,0-2.6-.24-2.93,1.66-5.32,1.53-2.18-.11-2.98-1.76-4.6-1.17-.76.28-.91.76-1.71.81-.84.05-1.07-.46-2.43-.81-.58-.15-1.28-.33-2.07-.18-1.29.24-1.38,1.06-2.34,1.26-1.48.3-2.05-1.47-3.88-1.62-1.62-.14-2.02,1.19-4.06,1.71-.86.22-1.67.21-5.41-.9-5.39-1.6-5.52-2.11-7.75-2.34-1.13-.12-3.32-.35-5.85.49-2.09.69-2.57,1.5-5.23,2.31-1.86.57-2.8.85-3.97.72-2.95-.33-4.4-2.68-6.67-2.43-.99.11-1.98.45-1.98.45-.83.28-.99.47-1.44.63-1.66.59-2.68-.73-4.96-.72-1.29,0-1.18.42-2.52.54-2.35.2-4.92-.89-6.58-2.61-1.42-1.48-.97-2.19-2.79-4.6-1.19-1.58-1.9-1.95-3.06-3.15-3.57-3.67-4.01-7.34-7.03-11.9-1.11-1.68-1.67-2.52-2.52-2.97-.46-.24-1.12-.49-1.44-1.17-.27-.58-.08-1.02-.09-1.53-.02-1.44-1.58-2.24-2.88-3.51-1.44-1.41-.74-1.61-2.79-4.69-2.09-3.12-3.03-3.24-3.88-5.5-.42-1.11-.28-1.32-.72-3.79-.8-4.48-1.33-4.21-1.71-7.03-.05-.35-.65-4.94-.09-8.47.06-.35.21-1.27,0-2.43-.26-1.4-.91-2.34-1.08-2.61-1.46-2.28-1.89-7.95-.15-11.65Z"/>
  <path class="cls-3" d="M222.19,37.87s.08.04.12.06c.91.45,1.75,1.05,2.43,1.76,1.42,1.48.97,2.18,2.79,4.6,1.19,1.57,1.9,1.95,3.06,3.15,3.57,3.67,4.01,7.34,7.03,11.9,1.11,1.68,1.67,2.52,2.52,2.97.46.24,1.12.49,1.44,1.17.27.58.08,1.01.09,1.53.02,1.44,1.58,2.24,2.88,3.51,1.44,1.41.74,1.61,2.79,4.69,2.09,3.12,3.03,3.24,3.88,5.5.41,1.11.28,1.32.72,3.79.81,4.48,1.33,4.21,1.71,7.03.05.35.65,4.94.09,8.47-.06.35-.21,1.27,0,2.43.26,1.4.91,2.34,1.08,2.61,1.46,2.28,1.89,7.95.15,11.65-1.54,3.27-3.39,2.08-7.36,6.31-2.35,2.5-1.37,2.57-7.01,11.21-2.1,3.21-3.17,4.84-4.38,6.13-1.29,1.37-1.97,1.8-2.63,3.15-.86,1.76-.49,2.67-1.58,4.73-.78,1.48-1.1,1.27-1.58,2.45-.72,1.8-.03,2.44-.53,4.55-.3,1.28-.54,1-1.75,3.85-.83,1.94-1.24,2.93-1.4,4.2-.26,2.05.41,2.18.17,3.68-.31,2.04-1.79,3.4-4.55,5.96-2.02,1.87-2.74,2.04-3.5,3.5-.57,1.09-.62,1.86-1.4,2.28-.57.31-1.06.16-3.33-.35-3.06-.69-3.5-.73-4.03-.53-1.07.41-.86,1.17-2.1,2.28-1.53,1.36-2.49.81-5.08,2.1-2.23,1.11-1.74,1.64-3.68,2.45-2.11.89-2.62.24-5.08,1.23-1.67.67-1.73,1.08-3.33,1.58-1.8.56-2.15.15-3.68.53-3.06.74-2.91,2.63-5.78,3.33-1.94.47-2.61-.25-4.38.53-1.46.64-2.24,1.67-2.63,2.1-2.81,3.15-8.58,1.12-19.1,2.45-6.93.88-9.81,1.58-9.81,1.58-3.03.73-4.34,1.29-6.48.88-2.76-.53-2.93-1.9-5.78-2.1-1.88-.14-3.09.36-4.73-.53-.7-.38-.91-.71-1.75-1.05-1.44-.59-2.77-.41-3.33-.35-4.98.57-6.99-1.01-12.09.35-2.53.68-2.15,1.09-5.61,2.1-2.75.8-4.29.92-7.01,1.4-5.24.94-4.71,1.44-9.29,2.28,0,0-7.16,1.32-12.96-.53-.88-.28-1.67-.65-2.1-1.4-.63-1.1.05-2.07-.35-3.5-.07-.26-.76-1.05-2.1-2.63-1.25-1.47-1.6-1.87-1.93-2.63-.37-.86-.3-1.22-.53-2.1,0,0-.59-2.35-2.45-4.2-.97-.97-1.97-1.4-4.73-2.28-6.19-1.97-6.47-1.52-8.76-2.63-1.43-.69-3.86-1.87-5.78-4.38-2.08-2.72-1.33-4.07-3.33-5.61-1.56-1.2-2.36-.64-5.78-2.45-.54-.28-1.85-.98-2.61-1.67-.23-.21-.41-.42-.5-.61-.02-.04-.03-.07-.04-.1"/>
  <circle class="cls-2" cx="67.15" cy="121.84" r="11.26"/>
  <path class="cls-1" d="M174.76,89.94c6.22,0,11.26,5.05,11.26,11.26s-5.05,11.26-11.26,11.26-11.26-5.05-11.26-11.26,5.05-11.26,11.26-11.26Z"/>
  <path class="cls-1" d="M45.55,66.62c6.22,0,11.26,5.05,11.26,11.26s-5.05,11.26-11.26,11.26-11.26-5.05-11.26-11.26,5.05-11.26,11.26-11.26Z"/>
  <path class="cls-1" d="M118.58,49.56c6.22,0,11.26,5.05,11.26,11.26s-5.05,11.26-11.26,11.26-11.26-5.05-11.26-11.26,5.05-11.26,11.26-11.26Z"/>
</svg>