<?xml version="1.0" encoding="UTF-8"?>
<svg id="Calque_1" data-name="Calque 1" xmlns="http://www.w3.org/2000/svg" viewBox="0 0 56.51 27.85">
  <defs>
    <style>
      .cls-1 {
        fill: #67912e;
      }
    </style>
  </defs>
  <path class="cls-1" d="M.33,3.22c0-.67.79-1.01,2.81-1.01s2.81.35,2.81,1.01-.79,1.01-2.81,1.01S.33,3.89.33,3.22ZM.33,11.09v-6.32h5.62v6.32H.33Z"/>
  <path class="cls-1" d="M6.61,7.62V2.21h3.14v3.95c0,.68.23.94.79.94s1.26-.21,1.69-.39v3.9c-.61.21-1.65.47-2.65.47-1.94,0-2.97-1.2-2.97-3.47Z"/>
  <path class="cls-1" d="M12.89,6.64c0-3.19.73-4.43,2.81-4.43s2.81,1.24,2.81,4.43-.73,4.44-2.81,4.44-2.81-1.12-2.81-4.44ZM16.03,9.01v-3.26c0-.32-.12-.48-.33-.48s-.33.16-.33.48v3.26c0,.32.12.48.33.48s.33-.16.33-.48Z"/>
  <path class="cls-1" d="M19.17,11.09V2.21h2l.48,2.79c.36-1.22,1.05-2.79,1.98-2.79.83,0,1.16.89,1.16,3.1v5.77h-2.48v-4.5c0-.24-.08-.39-.28-.39-.15,0-.29.09-.39.24v4.64h-2.48Z"/>
  <path class="cls-1" d="M25.45,8.39c0-1.94.83-2.99,2.63-3.42l.49-.12c-.04-.28-.23-.37-.72-.37-.85,0-1.81.29-2.41.51v-2.3c.55-.2,1.61-.47,2.74-.47,2,0,2.87.8,2.87,3.23v5.64h-1.73l-.75-2.78c-.17,1.38-.68,2.78-1.65,2.78s-1.49-1.13-1.49-2.7ZM28.59,6.88v-1.34h-.16c-.33,0-.51.23-.51.73v.61c0,.32.12.48.33.48s.33-.16.33-.48Z"/>
  <path class="cls-1" d="M.33,27.05v-8.88h5.62v3.17c.56-1.09,1.65-2.01,3.22-2.01,2.06,0,3.06,1.26,3.06,3.86s-1.02,3.86-3.35,3.86c-1.22,0-2.29-.45-2.93-1.13l-.48,1.13H.33ZM6.61,24.56v-2.49c0-.24-.08-.39-.28-.39-.15,0-.29.09-.39.24v2.78c.09.15.24.24.39.24.2,0,.28-.15.28-.39Z"/>
  <path class="cls-1" d="M12.89,22.61c0-2.91.93-4.43,2.87-4.43,2.4,0,2.74,1.98,2.74,4.43,0,.53-.03,1.2-.05,1.46h-3.09v.07c0,.49.35.71,1.34.71.72,0,1.4-.16,1.8-.28v2.02c-.53.2-1.44.47-2.48.47-2.14,0-3.14-1.37-3.14-4.44ZM15.37,23.41h.67v-2.65c0-.32-.12-.48-.33-.48s-.33.16-.33.48v2.65Z"/>
  <path class="cls-1" d="M19.17,27.05v-8.88h2l.48,2.79c.28-1.48.82-2.79,1.92-2.79.44,0,.93.21,1.22.4v4.08c-.61-.2-1.41-.39-1.98-.39-.87,0-1.16.45-1.16,1.29v3.49h-2.48Z"/>
  <path class="cls-1" d="M25.45,18.18h2.81v.96h2.81v2.66h-2.81v.48c0,.65.23.93.8.93.64,0,1.48-.27,2.01-.48v3.86c-.56.2-1.58.47-2.67.47-1.94,0-2.94-1.06-2.94-3.25v-5.63Z"/>
  <path class="cls-1" d="M31.73,27.05v-8.88h2l.48,2.79c.28-1.48.82-2.79,1.92-2.79.44,0,.93.21,1.22.4v4.08c-.61-.2-1.41-.39-1.98-.39-.86,0-1.16.45-1.16,1.29v3.49h-2.48Z"/>
  <path class="cls-1" d="M38,24.35c0-1.94.83-2.99,2.63-3.42l.49-.12c-.04-.28-.23-.37-.72-.37-.85,0-1.81.29-2.41.51v-2.3c.55-.2,1.61-.47,2.74-.47,2,0,2.87.8,2.87,3.23v5.64h-1.73l-.75-2.78c-.17,1.38-.68,2.78-1.65,2.78s-1.49-1.13-1.49-2.7ZM41.15,22.85v-1.34h-.16c-.33,0-.51.23-.51.73v.61c0,.32.12.48.33.48s.33-.16.33-.48Z"/>
  <path class="cls-1" d="M44.28,27.05v-8.88h2l.48,2.79c.36-1.22,1.05-2.79,1.98-2.79.82,0,1.16.89,1.16,3.1v5.77h-2.48v-4.5c0-.24-.08-.39-.28-.39-.15,0-.29.09-.39.24v4.64h-2.48Z"/>
  <path class="cls-1" d="M50.56,23.19c0-2.83.53-3.86,1.68-3.86.64,0,1.16.43,1.46,1.13v-2.29h2.48v8.88h-2l-.48-2.01c-.25,1.09-.8,2.01-1.61,2.01-1.05,0-1.53-1.17-1.53-3.86ZM53.7,24.46v-2.78c-.09-.15-.24-.24-.39-.24-.2,0-.28.15-.28.39v2.49c0,.24.08.39.28.39.15,0,.29-.09.39-.24Z"/>
</svg>